<svg id="Calque_1" data-name="Calque 1" xmlns="http://www.w3.org/2000/svg" viewBox="0 0 565.36 114.54"><defs><style>.cls-1{fill:none;}.cls-2{fill:#4e61d3;}.cls-3{fill:#ff3f7f;}</style></defs><title>Sans titre - 2</title><path class="cls-1" d="M476.13,107.81c-5.05-5.43-11.68-7-18.64-7.64-3.28-.3-3.29-.1-3.29,3.12,0,11.91,0,23.83,0,35.74,0,4.65-.09,4.65,4.43,4.55.9,0,1.8,0,2.7,0a20.71,20.71,0,0,0,15.38-7.76c4.63-5.62,5.32-12.15,4-19A18,18,0,0,0,476.13,107.81Z" transform="translate(-14.24 -55.67)"/><path class="cls-1" d="M221.14,132.42c-2.35-.64-4.77-.15-6.66-.3-2.47,0-4.45,0-6.42,0-1,0-1.57.37-1.57,1.47,0,3.71,0,7.42,0,11.13,0,1,.45,1.43,1.42,1.42,4,0,8,.11,12-.08,3.66-.17,6.33-2.64,6.61-5.71C226.93,136.25,225.07,133.47,221.14,132.42Z" transform="translate(-14.24 -55.67)"/><path class="cls-1" d="M208.18,110.55c2.27,0,4.54,0,6.82,0a15.2,15.2,0,0,0,5.15-.57,6.39,6.39,0,0,0,4.48-6.76A6,6,0,0,0,218.38,98c-1.56,0-3.12,0-4.67,0h0c-1.8,0-3.59,0-5.39,0-1.28,0-1.85.45-1.84,1.78,0,3,0,6.11,0,9.16C206.43,110.1,207,110.57,208.18,110.55Z" transform="translate(-14.24 -55.67)"/><path class="cls-2" d="M243.81,120.34c-1.28-.7-1.55-1.33-.21-2.31a11.15,11.15,0,0,0,1.78-2A24.58,24.58,0,0,0,247,86.69c-5.38-7.87-13.23-11.75-22.59-12.06-10.71-.35-21.44-.1-32.17-.13-2.09,0-4.2.07-6.29-.1-4.21-.33-6.08,1.26-6.06,5.44,0,8.62,0,17.23.21,25.85.19,9.58,0,19.17,0,28.76h0v22.29c0,2.69,0,5.39,0,8.09.05,2.36,1.34,3.58,3.72,3.67,2.21.08,4.42.25,6.63.25,11.09,0,22.17.08,33.26,0a39.31,39.31,0,0,0,11.18-1.47c7-2.12,12.72-6,16.54-12.4a27,27,0,0,0,.23-26.13A20.32,20.32,0,0,0,243.81,120.34ZM206.48,99.7c0-1.33.56-1.82,1.84-1.78,1.8.06,3.59,0,5.39,0h0c1.55,0,3.11,0,4.67,0a6,6,0,0,1,6.25,5.25,6.39,6.39,0,0,1-4.48,6.76,15.2,15.2,0,0,1-5.15.57c-2.28,0-4.55,0-6.82,0-1.21,0-1.75-.45-1.72-1.69C206.51,105.81,206.52,102.75,206.48,99.7Zm20.07,40.64c-.28,3.07-3,5.54-6.61,5.71-4,.19-8,.06-12,.08-1,0-1.42-.44-1.42-1.42,0-3.71,0-7.42,0-11.13,0-1.1.55-1.48,1.57-1.47,2,0,3.95,0,6.42,0,1.89.15,4.31-.34,6.66.3C225.07,133.47,226.93,136.25,226.55,140.34Z" transform="translate(-14.24 -55.67)"/><path class="cls-2" d="M461.92,76.14c-10-.59-20-.12-30-.11a4,4,0,0,0-3.76,2,7.12,7.12,0,0,0-.56,3.52v40.25h0v24.8c0,5.45,0,10.9,0,16.35,0,3.81,1.07,4.75,4.87,4.75,8.86,0,17.73.12,26.59-.05,8.11-.15,16.13-1.14,23.69-4.38,8.73-3.74,15.74-9.46,20.5-17.79A46.11,46.11,0,0,0,509,127a43,43,0,0,0-9.52-32.36C489.87,82.63,476.87,77,461.92,76.14Zm14.77,59.67a20.71,20.71,0,0,1-15.38,7.76c-.9.06-1.8,0-2.7,0-4.52.1-4.45.1-4.43-4.55.05-11.91,0-23.83,0-35.74,0-3.22,0-3.42,3.29-3.12,7,.63,13.59,2.21,18.64,7.64a18,18,0,0,1,4.58,9C482,123.66,481.32,130.19,476.69,135.81Z" transform="translate(-14.24 -55.67)"/><path class="cls-2" d="M302.17,165.42a2.64,2.64,0,0,0,2.7,2.56A3.72,3.72,0,0,1,302.17,165.42Z" transform="translate(-14.24 -55.67)"/><path class="cls-2" d="M326.37,168c1.86-.14,2.66-.74,2.94-2.33A3.71,3.71,0,0,1,326.37,168Z" transform="translate(-14.24 -55.67)"/><path class="cls-2" d="M579.42,137.16c-.9-7.25-3.91-13.15-9.76-17.71-5-3.9-10.79-6.16-16.53-8.53-3.38-1.4-6.87-2.52-10-4.41-1.38-.83-2.54-2-2.41-3.73a4.64,4.64,0,0,1,3.08-3.89,12.74,12.74,0,0,1,4.54-1c8-.41,15.34,2.08,22.43,5.48,2.15,1,2.33.89,2.51-1.52.49-6.38,1-12.76,1.61-19.13.13-1.39-.24-2.2-1.47-2.68-2.9-1.12-5.76-2.39-8.72-3.31a54.82,54.82,0,0,0-23.25-2.16C532,75.78,524,79.44,518.17,87.29c-8.31,11.18-7.67,29.91,7.91,38.89,5.8,3.34,12,5.62,18.23,8a13.07,13.07,0,0,1,6.05,4,4,4,0,0,1-.27,5.39,9.06,9.06,0,0,1-5,2.7,28.11,28.11,0,0,1-11.59-.13,58.59,58.59,0,0,1-18.34-7.59c-1.59-1-2-.79-2,1.08,0,5.57,0,11.13,0,16.7h-.39c0,1.62,0,3.24,0,4.85A1.79,1.79,0,0,0,514,163a73.63,73.63,0,0,0,21,6.61c9.34,1.26,18.39.65,27.06-3.32C573.64,161,580.88,149,579.42,137.16Z" transform="translate(-14.24 -55.67)"/><path class="cls-2" d="M286,74.56c-6.88-.12-13.77,0-20.65-.29A3.69,3.69,0,0,0,262,76a6.57,6.57,0,0,0-.68,3.66v42.05h0v41.52a12,12,0,0,0,.13,2.32c.27,1.41,1,2.49,2.61,2.5,7.49,0,15,.05,22.47,0,1.81,0,2.71-1.14,2.67-2.92-.11-5.14.09-10.28-.05-15.43-.26-9.93-.14-19.88-.07-29.83.1-13.71-.3-27.43.22-41.14C289.36,76.25,288.12,74.6,286,74.56Z" transform="translate(-14.24 -55.67)"/><path class="cls-2" d="M168.28,78.94c-.07-3.23-1.3-4.41-4.55-4.42q-9.16,0-18.34,0c-3.72,0-4.78,1.1-4.78,4.85v42.07q0,21.39,0,42.79c0,3,.9,3.88,3.86,3.89q9.89,0,19.77,0c2.81,0,3.8-1,3.76-3.83-.09-5,.25-10.05.05-15.08-.27-6.88.19-13.76.05-20.65-.19-10.18.12-20.37.16-30.55,0-3.41-.28-6.83-.18-10.23C168.17,84.8,168.34,81.87,168.28,78.94Z" transform="translate(-14.24 -55.67)"/><path class="cls-2" d="M409.65,74.55q-8.89,0-17.8,0c-3.63,0-4.93,1.33-4.93,5q0,20.94,0,41.88,0,21.3,0,42.61c0,3.18.92,4.09,4.05,4.09h18.34c4.16,0,5-.79,5-4.9q0-42,0-83.95C414.32,75.93,413,74.56,409.65,74.55Z" transform="translate(-14.24 -55.67)"/><path class="cls-3" d="M112.25,101.35c0-1.12-.56-1.44-1.66-1.33a75.65,75.65,0,0,0-34.31,11.64c-5.45,3.48-10.5,7.46-14.23,12.86-2.17,3.14-3.7,6.6-3.4,10.47.5,6.56,5.86,10.53,12.67,9.7a56.82,56.82,0,0,0,15.49-4.45,41,41,0,0,1,8.69-2.93c.81-.15,1.67-.23,2.16.56s-.07,1.39-.51,2a18.86,18.86,0,0,1-3.31,3.43C87.43,148.68,80,152,72,154.28c-9.49,2.72-18.74,2.55-27.7-2.06A34.12,34.12,0,0,1,28,135.39c-4.07-9.26-3.8-18.72-.9-28.23,3.64-12,10.8-21.77,19.41-30.57a97,97,0,0,1,13.3-11.3c1.08-.77,1.45-1.47.53-2.67-1.57-2-3-4.18-4.49-6.28-.6-.85-1.16-.84-2-.23-13,9.66-24.3,21-31.95,35.48a62.78,62.78,0,0,0-7.7,30.28,42.93,42.93,0,0,0,8.36,25.83c10.26,13.36,23.8,19.84,40.7,18.86a62.44,62.44,0,0,0,34.59-13c3.42-2.58,6.63-5.47,8.58-9.44A11.71,11.71,0,0,0,97.71,127c-3.56-.58-7,.3-10.26,1.52-5.11,1.89-10.15,4-15.25,5.89-1.09.41-2.6,1.08-3.38-.17-.68-1.1.48-2.15,1.21-3,6.47-7.72,14.85-12.69,24.08-16.33a57.79,57.79,0,0,1,16.39-4c1.69-.13,2.34-.88,2.17-2.59C112.44,106,112.36,103.67,112.25,101.35Z" transform="translate(-14.24 -55.67)"/><path class="cls-3" d="M57.3,105.25c-1,1.07-1,1.73.16,2.67,1.87,1.57,3.64,3.27,5.41,5,.83.79,1.52.88,2.29-.06a65.18,65.18,0,0,1,5.59-5.56A100.48,100.48,0,0,1,96.12,89.91a105.94,105.94,0,0,1,13.29-5.34c.8-.26,1.32-.57,1-1.56-.8-2.57-1.56-5.16-2.33-7.74a1.34,1.34,0,0,0-1.75-1c-.25.07-.78.22-1.3.39A112.88,112.88,0,0,0,72.9,91.32,119.91,119.91,0,0,0,57.3,105.25Z" transform="translate(-14.24 -55.67)"/><path class="cls-3" d="M43,95.66c-.65,1-.44,1.53.46,2.08,2,1.25,4.11,2.45,6,3.84,1.45,1,2.17.78,3.15-.7A94.72,94.72,0,0,1,74.33,77.6,97.4,97.4,0,0,1,89.1,68.36c.61-.31,1.47-.49,1.37-1.57-.14-.33-.29-.72-.47-1.11-1-2.11-2-4.19-2.94-6.33-.57-1.37-1.25-1.53-2.54-.86A130.5,130.5,0,0,0,71.76,66.1,106.25,106.25,0,0,0,43,95.66Z" transform="translate(-14.24 -55.67)"/><path class="cls-3" d="M306.38,168.07a12.91,12.91,0,0,1-1.51-.09,3.88,3.88,0,0,0,.85.11h20.13a4.36,4.36,0,0,0,.52-.05c-.29,0-.6,0-.94,0Q315.9,168.09,306.38,168.07Z" transform="translate(-14.24 -55.67)"/><path class="cls-2" d="M328.21,78.7c0-3.2-1-4.15-4.19-4.2-6-.09-12.09.14-18.14-.14-3.7-.17-5.09,1.34-5.09,5v84.3a12,12,0,0,0,.11,1.71,3.72,3.72,0,0,0,2.7,2.56,12.91,12.91,0,0,0,1.51.09q9.52,0,19.05,0c.35,0,.65,0,.94,0a3.71,3.71,0,0,0,2.94-2.33,10.23,10.23,0,0,0,.13-1.7" transform="translate(-14.24 -55.67)"/><path class="cls-3" d="M330.67,115.65c.53-1.57,4.7-6.14,6.41-8.59,6.66-9.59,13.42-19.11,20-28.77,2.92-4.3,7.13-4.63,11.59-4.37,4.15.23,7.9,1.68,10.56,5,2.9,3.66,2.8,9.06-.26,13.63-3.4,5.07-7,10-10.54,15-3,4.26-6,8.53-9,12.77a1.67,1.67,0,0,0,.17,2.26c5.85,8,11.68,15.93,17.78,23.71,1,1.32,2.07,2.64,3,4,2.76,3.9,2.17,7.87-.19,11.61-2.64,4.16-6.8,6.07-11.52,6.89-.65.11-1.31.16-2,.25-3.21.45-5.79-.34-7.82-3.15-5.55-7.65-11.29-15.17-16.91-22.78-3-4.1-6.66-9-9.81-13.29a13.75,13.75,0,0,1-1.51-14.17Z" transform="translate(-14.24 -55.67)"/></svg>